<svg width="32" height="32" viewBox="0 0 32 32" fill="none" xmlns="http://www.w3.org/2000/svg">
<path fill-rule="evenodd" clip-rule="evenodd" d="M2.66797 16.0003C2.66797 8.63653 8.6375 2.66699 16.0013 2.66699C23.365 2.66699 29.3346 8.63653 29.3346 16.0003C29.3346 23.3641 23.365 29.3337 16.0013 29.3337C8.6375 29.3337 2.66797 23.3641 2.66797 16.0003ZM20.9441 14.2765C21.4648 13.7558 21.4648 12.9116 20.9441 12.3908C20.4234 11.8702 19.5792 11.8702 19.0585 12.3908L14.668 16.7814L12.9441 15.0575C12.4234 14.5369 11.5792 14.5369 11.0585 15.0575C10.5378 15.5782 10.5378 16.4225 11.0585 16.9431L13.7252 19.6098C14.2458 20.1305 15.0901 20.1305 15.6108 19.6098L20.9441 14.2765Z" fill="#B2BB1E"/>
</svg>
