<svg width="36" height="36" viewBox="0 0 36 36" fill="none" xmlns="http://www.w3.org/2000/svg">
<path d="M0 18C0 8.05887 8.05887 0 18 0C27.9411 0 36 8.05887 36 18C36 27.9411 27.9411 36 18 36C8.05887 36 0 27.9411 0 18Z" fill="white"/>
<path d="M22.4348 19.153L22.9802 15.5967H19.5681V13.2899C19.5681 12.3167 20.0438 11.3676 21.5721 11.3676H23.1244V8.3399C23.1244 8.3399 21.7163 8.09961 20.3706 8.09961C17.5593 8.09961 15.7234 9.80325 15.7234 12.8862V15.5967H12.5996V19.153H15.7234V27.7506C16.3506 27.8492 16.9922 27.8996 17.6458 27.8996C18.2993 27.8996 18.9409 27.8492 19.5681 27.7506V19.153H22.4348Z" fill="#1877F2"/>
</svg>
