<svg width="36" height="36" viewBox="0 0 36 36" fill="none" xmlns="http://www.w3.org/2000/svg">
<path d="M0 18C0 8.05887 8.05887 0 18 0C27.9411 0 36 8.05887 36 18C36 27.9411 27.9411 36 18 36C8.05887 36 0 27.9411 0 18Z" fill="white"/>
<path fill-rule="evenodd" clip-rule="evenodd" d="M12.9895 11.117C12.9895 12.2939 12.1036 13.2355 10.6813 13.2355H10.6552C9.28573 13.2355 8.40039 12.2939 8.40039 11.117C8.40039 9.9153 9.3127 9 10.7082 9C12.1036 9 12.963 9.9153 12.9895 11.117ZM12.7208 14.9084V27.1647H8.6416V14.9084H12.7208ZM27.4317 27.1647L27.4318 20.1373C27.4318 16.3727 25.4194 14.6206 22.7351 14.6206C20.5694 14.6206 19.5997 15.8102 19.0583 16.6447V14.9087H14.9786C15.0324 16.0588 14.9786 27.165 14.9786 27.165H19.0583V20.3201C19.0583 19.9538 19.0848 19.5884 19.1926 19.3261C19.4875 18.5943 20.1587 17.8367 21.2857 17.8367C22.7624 17.8367 23.3526 18.9605 23.3526 20.6075V27.1647H27.4317Z" fill="#0077B5"/>
</svg>
