<svg width="68" height="24" viewBox="0 0 68 24" fill="none" xmlns="http://www.w3.org/2000/svg">
<path d="M27.6971 0H24.2553C22.6312 4.51049 19.8963 11.9999 18.39 16.1065C18.2385 16.502 18.0534 16.8807 17.8262 17.2425H20.2076C20.8556 17.2004 21.4362 16.8386 21.7476 16.2664C21.7981 16.1822 21.8486 16.0897 21.8822 15.9971L23.3212 12.0672C25.1052 7.17807 27.5204 0.538566 27.6971 0Z" fill="#929497"/>
<path d="M64.2774 8.62451L62.8385 12.5628C62.5692 13.2612 61.9212 13.7409 61.1723 13.7914H58.7908C59.0348 13.4043 59.2452 12.9919 59.3967 12.5628L60.8357 8.62451H57.3855L55.9549 12.5628C55.6856 13.2612 55.0293 13.7409 54.2887 13.7914H51.8904C52.1345 13.4043 52.3364 12.9919 52.4963 12.5628L53.9353 8.62451H50.4851L49.0545 12.5628C48.7853 13.2612 48.1373 13.7409 47.3884 13.7914H36.3646C36.617 13.4127 36.819 13.0088 36.9789 12.588L37.3407 11.5782C38.2832 8.98636 36.9452 6.89941 34.3618 6.89941H30.4404L29.1865 10.3412H33.1248C33.8064 10.3412 34.1598 10.8882 33.9074 11.5698L33.5287 12.5796C33.2594 13.2696 32.6115 13.7409 31.8709 13.783H26.1992L24.9453 17.2331H59.9437C62.5355 17.2331 65.3462 15.1546 66.2887 12.5796L67.736 8.61609L64.2774 8.62451Z" fill="#D99340"/>
<path d="M9.59597 17.2419H0.482422L1.73627 13.7917H10.8582C11.6072 13.7413 12.2635 13.2616 12.5412 12.5631L12.8947 11.587C13.1387 10.9054 12.7937 10.3584 12.1121 10.3584H6.44872L7.70257 6.9082H13.3575C15.9494 6.9082 17.2705 9.00356 16.3365 11.587L15.983 12.5631C15.0405 15.155 12.1794 17.2335 9.59597 17.2419Z" fill="#D99340"/>
<path d="M24.9283 21.1729H24.5075L24.3477 21.602H24.7684L24.9283 21.1729Z" fill="#929497"/>
<path d="M25.8295 22.4431C25.779 22.6114 25.6612 22.7544 25.5097 22.847C25.3751 22.9059 25.2236 22.9311 25.0721 22.9227H24.0118C23.8435 22.9396 23.6668 22.8975 23.5238 22.7965C23.4144 22.6955 23.4059 22.5188 23.4985 22.2664L23.7425 21.6184H23.3134L23.0693 22.2664C22.8001 22.9985 23.0693 23.3687 23.9024 23.3687H25.3078C25.6864 23.3687 26.023 23.1163 26.1324 22.746L26.5532 21.6016H26.1324L25.8295 22.4431Z" fill="#929497"/>
<path d="M25.6685 21.1729H25.2394L25.0879 21.602H25.5086L25.6685 21.1729Z" fill="#929497"/>
<path d="M28.5798 22.5103C28.6303 22.3673 28.7144 22.241 28.8238 22.1316C28.9248 22.0222 29.0678 21.9633 29.2193 21.9633C29.4213 21.9633 29.5223 22.0643 29.5223 22.2663L29.9598 22.0896C29.9514 21.8034 29.7158 21.5762 29.4297 21.5847C29.4129 21.5847 29.396 21.5847 29.3792 21.5847C29.1099 21.5847 28.849 21.6856 28.6387 21.8539C28.4199 22.0222 28.2432 22.241 28.1422 22.5019C28.0917 22.6281 28.0664 22.7712 28.0749 22.9142H27.3764C27.267 22.9311 27.1492 22.9058 27.0566 22.8469C26.9977 22.788 26.9977 22.6618 27.0566 22.4767L27.6541 20.8525H27.2333L26.5854 22.645C26.5097 22.8048 26.5012 22.9816 26.5601 23.1499C26.6443 23.2929 26.8042 23.3771 26.9725 23.3518H29.5054L29.6653 22.9058H28.5629C28.504 22.7712 28.504 22.6197 28.5629 22.4935" fill="#929497"/>
<path d="M34.5142 20.8105H34.0935L33.9336 21.2397H34.3543L34.5142 20.8105Z" fill="#929497"/>
<path d="M34.0249 21.5672C33.4779 21.5925 32.9983 21.9459 32.8215 22.4592C32.7626 22.6023 32.7458 22.7622 32.7626 22.9221H31.7023L31.8706 22.4677C32.0558 21.9627 31.8706 21.5925 31.3826 21.5925C30.8524 21.6093 30.3812 21.9543 30.196 22.4508C30.0109 22.9641 30.2465 23.3512 30.7178 23.3512H31.1301C31.0207 23.5448 30.8103 23.6542 30.5915 23.6542L30.4653 23.9908C30.9281 24.016 31.3489 23.7636 31.5425 23.3428H33.3685C33.9155 23.3176 34.3868 22.9641 34.5635 22.4508C34.7486 21.9459 34.5466 21.542 34.0249 21.542V21.5672ZM31.2648 22.9052H30.8777C30.642 22.9052 30.5579 22.6864 30.642 22.4256C30.7262 22.1731 30.9534 22.0048 31.2227 21.988C31.4499 21.988 31.5256 22.1479 31.4583 22.3835L31.2648 22.9052ZM33.52 22.9473C33.2591 22.9473 33.1666 22.7201 33.2675 22.4424C33.3433 22.1731 33.5789 21.9712 33.865 21.9459C34.1259 21.9459 34.2269 22.1647 34.1175 22.4592C34.0333 22.7285 33.7977 22.9221 33.52 22.9473Z" fill="#929497"/>
<path d="M41.9935 22.519C41.9598 22.6199 41.9177 22.7125 41.8588 22.7967C41.7747 22.8892 41.6569 22.9313 41.539 22.9229H40.5629C40.6807 22.7967 40.7733 22.6368 40.8153 22.4685L41.4044 20.8444H40.9752L40.3778 22.4685C40.3441 22.5779 40.2936 22.6788 40.2263 22.763C40.1421 22.8556 40.0243 22.906 39.9065 22.8976H39.2586L39.3006 22.7882C39.3932 22.5863 39.3932 22.3422 39.3006 22.1403C39.1912 21.9551 38.9809 21.8542 38.7705 21.8794C38.5096 21.8794 38.2487 21.972 38.0468 22.1319C37.828 22.3002 37.6681 22.519 37.5755 22.7798C37.5755 22.8219 37.5419 22.864 37.5335 22.906H36.633C36.8771 22.2413 36.7677 21.8205 36.3133 21.6438C36.246 21.6185 36.1702 21.5933 36.1029 21.5849H35.699L35.5559 21.9804C35.6821 21.9804 35.8084 21.9888 35.9346 22.014C36.2964 22.0982 36.389 22.3927 36.2039 22.906H34.7986L34.6387 23.3436H37.5587C37.6513 23.5708 37.8869 23.6971 38.1309 23.6634C38.4339 23.6634 38.7368 23.5456 38.9556 23.3436H41.5054C41.9346 23.352 42.3132 23.0575 42.4142 22.6368L43.0622 20.8359H42.6246L41.9935 22.519ZM38.6106 23.1669C38.5096 23.2595 38.3834 23.31 38.2487 23.31C37.9795 23.31 37.8953 23.0828 37.9963 22.8051C38.0468 22.6788 38.1225 22.561 38.2235 22.4685C38.3245 22.3675 38.4591 22.317 38.5938 22.317C38.7116 22.3086 38.821 22.3675 38.863 22.4769C38.8967 22.5947 38.8883 22.7209 38.8378 22.8303C38.7957 22.9481 38.72 23.0659 38.6106 23.1669Z" fill="#929497"/>
<path d="M45.0998 21.6693C45.0325 21.644 44.9567 21.6188 44.8894 21.6104H44.4855L44.3424 22.0059C44.4686 22.0059 44.5949 22.0143 44.7211 22.0395C45.083 22.1237 45.1755 22.4182 44.9904 22.9315H43.5935L43.4336 23.3691H45.2765L45.4364 22.9315C45.6636 22.2667 45.5542 21.846 45.0998 21.6693Z" fill="#929497"/>
<path d="M45.6621 23.368H46.0913L47.0085 20.8604H46.5794L45.6621 23.368Z" fill="#929497"/>
<path d="M51.9665 22.4928C51.8655 22.7789 51.6972 22.922 51.4784 22.922H51.0661C51.1923 22.7873 51.2849 22.6275 51.327 22.4507L51.6467 21.6008H51.2176L50.8978 22.4928C50.7968 22.7789 50.6285 22.922 50.4097 22.922H50.0058V22.8967C50.1152 22.7621 50.1909 22.6106 50.2414 22.4423L50.5612 21.5924H50.0984L49.7786 22.4507C49.6692 22.7621 49.5009 22.9052 49.2821 22.9052H48.4827C48.7183 22.2572 48.6173 21.8196 48.1629 21.6429C48.0956 21.6176 48.0198 21.5924 47.9525 21.584H47.5486L47.4055 21.9795C47.5318 21.9795 47.658 21.9879 47.7842 22.0132C48.1461 22.0973 48.2386 22.3918 48.0535 22.9052H46.6482L46.4883 23.3427H51.369C51.8908 23.2838 52.3199 22.922 52.4546 22.4171L52.7659 21.584H52.3115L51.9665 22.4928Z" fill="#929497"/>
<path d="M55.9301 21.6024H54.8361C54.2302 21.6276 53.7085 22.0484 53.5402 22.6374L53.0605 24.0007H53.4981L53.9694 22.7048C54.1208 22.284 54.407 22.0231 54.6931 22.0231H55.0128C54.895 22.1578 54.7941 22.3093 54.7351 22.4776C54.55 22.9825 54.7604 23.378 55.2821 23.378C55.8207 23.3527 56.2919 22.9993 56.4771 22.486C56.6622 21.9727 56.4602 21.5771 55.9385 21.5771L55.9301 21.6024ZM55.442 22.9825C55.1811 22.9825 55.0802 22.7553 55.1896 22.4776C55.2653 22.2083 55.5009 22.0063 55.787 21.9811C56.0563 21.9811 56.1405 22.1999 56.0395 22.4944C55.9553 22.7637 55.7197 22.9572 55.442 22.9825Z" fill="#929497"/>
<path d="M60.9459 20.8193H60.5251L60.3652 21.2485H60.786L60.9459 20.8193Z" fill="#929497"/>
<path d="M63.2343 20.8193H62.8136L62.6621 21.2485H63.0829L63.2343 20.8193Z" fill="#929497"/>
<path d="M62.5191 21.6015L62.1993 22.5103C62.1657 22.6113 62.1236 22.7039 62.0647 22.788C61.9805 22.8806 61.8627 22.9227 61.7449 22.9142H61.0464C61.3662 22.0307 61.1811 21.5847 60.5247 21.5847C60.1124 21.5847 59.6664 21.795 59.1362 22.2579L59.7 20.8525H59.2709L58.5219 22.9142H57.6299C57.5205 22.9311 57.4027 22.9058 57.3101 22.8469C57.2512 22.788 57.2512 22.6618 57.3101 22.4767L57.9076 20.8525H57.4869L56.8389 22.645C56.7632 22.8048 56.7463 22.9816 56.8137 23.1499C56.8978 23.2929 57.0577 23.3771 57.226 23.3518H61.6776C62.1068 23.3602 62.4854 23.0657 62.5864 22.645L62.9735 21.5847L62.5191 21.6015ZM60.5752 22.9227H58.8501C59.3045 22.3841 59.902 21.9802 60.3312 21.9802C60.7014 21.9802 60.8108 22.2999 60.6341 22.7964C60.6257 22.8385 60.6089 22.8806 60.5836 22.9227" fill="#929497"/>
</svg>
