<svg width="36" height="24" viewBox="0 0 36 24" fill="none" xmlns="http://www.w3.org/2000/svg">
<path d="M35.0471 24H0V0H35.6529V24H35.0471Z" fill="#1D5B99"/>
<path fill-rule="evenodd" clip-rule="evenodd" d="M35.0468 23.3949H0.605469V0.606445H35.0468V23.3949V23.3949Z" fill="white"/>
<path fill-rule="evenodd" clip-rule="evenodd" d="M13.054 15.7009L15.2908 8.32574H17.2865L15.0496 15.7009H13.054V15.7009ZM12.1618 8.32777L10.3665 11.4543C9.90961 12.2733 9.64224 12.6869 9.51383 13.204H9.48644C9.51829 12.5484 9.4268 11.7428 9.41828 11.2876L9.21988 8.32777H5.86046L5.82617 8.52617C6.68915 8.52617 7.20098 8.95969 7.34177 9.84661L7.99661 15.7009H10.0642L14.245 8.32777H12.1618ZM27.6821 15.7009L27.6271 14.6042L25.1353 14.6021L24.6253 15.7009H22.4587L26.3876 8.33974H29.0469L29.7121 15.7009H27.6821V15.7009ZM27.4535 11.3504C27.4309 10.8053 27.4127 10.0657 27.4494 9.61778H27.42C27.2987 9.98395 26.7769 11.0835 26.5475 11.6241L25.805 13.2405H27.5547L27.4535 11.3504ZM19.3817 15.9104C17.9728 15.9104 17.0376 15.4635 16.3702 15.0649L17.3208 13.6132C17.9203 13.9483 18.3907 14.3352 19.4736 14.3352C19.8215 14.3352 20.1571 14.2449 20.3478 13.9148C20.6251 13.4355 20.2836 13.177 19.5042 12.7358L19.1192 12.4855C17.9635 11.6959 17.4634 10.9457 18.0075 9.63645C18.3558 8.79902 19.2738 8.16406 20.789 8.16406C21.8333 8.16406 22.8129 8.61604 23.3834 9.05747L22.2906 10.3392C21.7335 9.88881 21.272 9.66099 20.7437 9.66099C20.3226 9.66099 20.0025 9.82349 19.8919 10.0426C19.684 10.4544 19.9593 10.7352 20.5666 11.1121L21.0243 11.4034C22.4277 12.2885 22.7616 13.2164 22.4103 14.0836C21.8049 15.5773 20.6206 15.9104 19.3817 15.9104V15.9104ZM30.3063 9.32525H30.2199V8.79903H30.4195C30.5467 8.79903 30.6112 8.84345 30.6112 8.95036C30.6112 9.04571 30.553 9.08527 30.4741 9.09399L30.6216 9.32525H30.5238L30.3879 9.10048H30.3063V9.32525V9.32525ZM30.4029 9.02644C30.4678 9.02644 30.525 9.02015 30.525 8.94387C30.525 8.88037 30.4627 8.87266 30.411 8.87266H30.3063V9.02644H30.4029ZM30.4004 9.52873C30.127 9.52873 29.9324 9.32404 29.9324 9.05321C29.9324 8.76738 30.1483 8.5779 30.4004 8.5779C30.6494 8.5779 30.8656 8.76738 30.8656 9.05321C30.8656 9.33925 30.6494 9.52873 30.4004 9.52873ZM30.4004 8.66047C30.1943 8.66047 30.0343 8.82195 30.0343 9.05321C30.0343 9.26926 30.1741 9.44596 30.4004 9.44596C30.6037 9.44596 30.7638 9.28569 30.7638 9.05321C30.7638 8.82195 30.6037 8.66047 30.4004 8.66047Z" fill="#1D5B99"/>
<path fill-rule="evenodd" clip-rule="evenodd" d="M34.1984 17.9912H1.51367V22.3643H34.1984V17.9912V17.9912Z" fill="#E7A83A"/>
<path fill-rule="evenodd" clip-rule="evenodd" d="M34.1377 1.69629H1.45312V6.06962H34.1377V1.69629ZM33.3907 22.0537H33.3043V21.5274H33.5039C33.6311 21.5274 33.6956 21.5719 33.6956 21.6788C33.6956 21.7739 33.6374 21.8135 33.5585 21.8222L33.706 22.0537H33.6082L33.4723 21.8287H33.3907V22.0537V22.0537ZM33.4875 21.7548C33.5524 21.7548 33.6096 21.7485 33.6096 21.6721C33.6096 21.6088 33.5473 21.6011 33.4956 21.6011H33.3909V21.7548H33.4875V21.7548ZM33.4851 22.2569C33.2116 22.2569 33.0171 22.0524 33.0171 21.7814C33.0171 21.4958 33.2333 21.3063 33.4851 21.3063C33.7344 21.3063 33.9502 21.4958 33.9502 21.7814C33.9502 22.0675 33.7344 22.2569 33.4851 22.2569ZM33.4851 21.3887C33.279 21.3887 33.1189 21.5504 33.1189 21.7814C33.1189 21.9977 33.2587 22.1742 33.4851 22.1742C33.6883 22.1742 33.8484 22.0141 33.8484 21.7814C33.8484 21.5504 33.6883 21.3887 33.4851 21.3887Z" fill="#1D5B99"/>
</svg>
