<svg width="25" height="24" viewBox="0 0 25 24" fill="none" xmlns="http://www.w3.org/2000/svg">
<g clip-path="url(#clip0_3172:97293)">
<path d="M20.1645 5.88199L20.9563 3.78936H24.4628V0H0.482422V23.9804H24.4628V20.191H21.1259L19.8817 18.7206L18.6374 20.1345H9.24884V12.6123H6.13818L10.0406 3.84591H13.83L14.7349 5.82543V3.84591H19.4292L20.1645 5.88199ZM17.5628 7.29593V6.44756L17.9022 7.29593L19.4858 11.4812H20.9563L22.5399 7.29593L22.8227 6.44756V11.4246H24.4628V5.03362H21.7481L20.5038 8.2574L20.1645 9.16233L19.8251 8.2574L18.5808 5.03362H15.8661V11.3681H17.5628V7.29593ZM14.0562 11.3681H15.9226L13.0948 4.97707H10.889L8.06114 11.3681H9.92753L10.4366 10.1238H13.5472L14.0562 11.3681ZM11.6808 7.18281L12.0202 6.39101L12.3595 7.18281L13.0382 8.82298H11.0587L11.6808 7.18281ZM10.5497 12.6123V19.0033H15.8661V17.5894H12.1333V16.4583H15.753V15.1009H12.1333V13.9697H15.8661V12.6123H10.5497ZM21.8612 18.8902H23.9538L20.9563 15.723L23.9538 12.5558H21.8612L19.9382 14.6484L18.0153 12.5558H15.8661L18.8636 15.7796L15.8661 18.9468H17.9022L19.8251 16.8542L21.8612 18.8902ZM22.653 15.7796L24.4628 17.646V13.9697L22.653 15.7796Z" fill="#006FCF"/>
</g>
<defs>
<clipPath id="clip0_3172:97293">
<rect width="24" height="24" fill="white" transform="translate(0.482422)"/>
</clipPath>
</defs>
</svg>
