<svg width="20" height="20" viewBox="0 0 20 20" fill="none" xmlns="http://www.w3.org/2000/svg">
<path fill-rule="evenodd" clip-rule="evenodd" d="M2.5 9.33464C2.5 8.40122 2.5 7.9345 2.68166 7.57799C2.84144 7.26438 3.09641 7.00941 3.41002 6.84963C3.76653 6.66797 4.23325 6.66797 5.16667 6.66797H6.5C7.43342 6.66797 7.90013 6.66797 8.25665 6.84963C8.57025 7.00941 8.82525 7.26438 8.985 7.57799C9.16667 7.9345 9.16667 8.40122 9.16667 9.33464V10.668C9.16667 11.6014 9.16667 12.0681 8.985 12.4246C8.82525 12.7382 8.57025 12.9932 8.25665 13.153C7.90013 13.3346 7.43343 13.3346 6.5 13.3346H5.16667C4.23325 13.3346 3.76653 13.3346 3.41002 13.153C3.09641 12.9932 2.84144 12.7382 2.68166 12.4246C2.5 12.0681 2.5 11.6014 2.5 10.668V9.33464ZM10.8333 10.0013C10.8333 9.54107 11.2064 9.16797 11.6667 9.16797H16.6667C17.1269 9.16797 17.5 9.54107 17.5 10.0013C17.5 10.4615 17.1269 10.8346 16.6667 10.8346H11.6667C11.2064 10.8346 10.8333 10.4615 10.8333 10.0013Z" fill="#6E9FBB"/>
</svg>
