<svg width="32" height="32" viewBox="0 0 32 32" fill="none" xmlns="http://www.w3.org/2000/svg">
<path fill-rule="evenodd" clip-rule="evenodd" d="M2.66797 16.0003C2.66797 8.63653 8.6375 2.66699 16.0013 2.66699C23.365 2.66699 29.3346 8.63653 29.3346 16.0003C29.3346 23.3641 23.365 29.3337 16.0013 29.3337C8.6375 29.3337 2.66797 23.3641 2.66797 16.0003ZM12.9441 11.0575C12.4234 10.5368 11.5792 10.5368 11.0585 11.0575C10.5378 11.5782 10.5378 12.4224 11.0585 12.9431L14.1157 16.0003L11.0585 19.0575C10.5378 19.5782 10.5378 20.4225 11.0585 20.9431C11.5792 21.4638 12.4234 21.4638 12.9441 20.9431L16.0013 17.8859L19.0585 20.9431C19.5792 21.4638 20.4234 21.4638 20.9441 20.9431C21.4648 20.4225 21.4648 19.5782 20.9441 19.0575L17.8869 16.0003L20.9441 12.9431C21.4648 12.4224 21.4648 11.5782 20.9441 11.0575C20.4234 10.5368 19.5792 10.5368 19.0585 11.0575L16.0013 14.1147L12.9441 11.0575Z" fill="#D99340"/>
</svg>
