<svg width="36" height="36" viewBox="0 0 36 36" fill="none" xmlns="http://www.w3.org/2000/svg">
<path d="M0 18C0 8.05887 8.05887 0 18 0C27.9411 0 36 8.05887 36 18C36 27.9411 27.9411 36 18 36C8.05887 36 0 27.9411 0 18Z" fill="white"/>
<mask id="mask0_3172:97288" style="mask-type:alpha" maskUnits="userSpaceOnUse" x="0" y="0" width="36" height="36">
<path fill-rule="evenodd" clip-rule="evenodd" d="M0 18C0 8.05887 8.05887 0 18 0C27.9411 0 36 8.05887 36 18C36 27.9411 27.9411 36 18 36C8.05887 36 0 27.9411 0 18Z" fill="white"/>
</mask>
<g mask="url(#mask0_3172:97288)">
<path fill-rule="evenodd" clip-rule="evenodd" d="M18.0013 8.40039C15.3941 8.40039 15.0669 8.41179 14.0428 8.45839C13.0208 8.50519 12.3232 8.66699 11.7128 8.9044C11.0814 9.1496 10.5458 9.4776 10.0122 10.0114C9.4782 10.545 9.1502 11.0806 8.9042 11.7118C8.66619 12.3224 8.50419 13.0202 8.45819 14.0418C8.41239 15.0659 8.40039 15.3933 8.40039 18.0005C8.40039 20.6077 8.41199 20.9339 8.45839 21.9579C8.50539 22.9799 8.66719 23.6775 8.9044 24.288C9.1498 24.9194 9.4778 25.455 10.0116 25.9886C10.545 26.5226 11.0806 26.8514 11.7116 27.0966C12.3224 27.334 13.0202 27.4958 14.042 27.5426C15.0661 27.5892 15.3931 27.6006 18.0001 27.6006C20.6075 27.6006 20.9337 27.5892 21.9577 27.5426C22.9797 27.4958 23.6781 27.334 24.289 27.0966C24.9202 26.8514 25.455 26.5226 25.9884 25.9886C26.5224 25.455 26.8504 24.9194 27.0964 24.2882C27.3324 23.6775 27.4944 22.9797 27.5424 21.9581C27.5884 20.9341 27.6004 20.6077 27.6004 18.0005C27.6004 15.3933 27.5884 15.0661 27.5424 14.042C27.4944 13.02 27.3324 12.3224 27.0964 11.712C26.8504 11.0806 26.5224 10.545 25.9884 10.0114C25.4544 9.4774 24.9204 9.1494 24.2884 8.9044C23.6763 8.66699 22.9783 8.50519 21.9563 8.45839C20.9323 8.41179 20.6063 8.40039 17.9983 8.40039H18.0013ZM17.1401 10.1304C17.3074 10.1302 17.4872 10.1302 17.6814 10.1303L18.0013 10.1304C20.5646 10.1304 20.8684 10.1396 21.8806 10.1856C22.8166 10.2284 23.3246 10.3848 23.663 10.5162C24.111 10.6902 24.4304 10.8982 24.7662 11.2342C25.1022 11.5702 25.3102 11.8902 25.4846 12.3382C25.616 12.6762 25.7726 13.1842 25.8152 14.1203C25.8612 15.1323 25.8712 15.4363 25.8712 17.9983C25.8712 20.5603 25.8612 20.8643 25.8152 21.8763C25.7724 22.8123 25.616 23.3204 25.4846 23.6584C25.3106 24.1064 25.1022 24.4254 24.7662 24.7612C24.4302 25.0972 24.1112 25.3052 23.663 25.4792C23.325 25.6112 22.8166 25.7672 21.8806 25.81C20.8686 25.856 20.5646 25.866 18.0013 25.866C15.4379 25.866 15.1341 25.856 14.1221 25.81C13.1861 25.7668 12.6781 25.6104 12.3395 25.479C11.8915 25.305 11.5715 25.097 11.2355 24.761C10.8995 24.425 10.6915 24.1058 10.5171 23.6576C10.3857 23.3196 10.2291 22.8115 10.1865 21.8755C10.1405 20.8635 10.1313 20.5595 10.1313 17.9959C10.1313 15.4323 10.1405 15.1299 10.1865 14.1179C10.2293 13.1818 10.3857 12.6738 10.5171 12.3354C10.6911 11.8874 10.8995 11.5674 11.2355 11.2314C11.5715 10.8954 11.8915 10.6874 12.3395 10.513C12.6779 10.381 13.1861 10.225 14.1221 10.182C15.0077 10.142 15.3509 10.13 17.1401 10.128V10.1304ZM21.9738 12.876C21.9738 12.2398 22.4898 11.7244 23.1258 11.7244V11.724C23.7618 11.724 24.2778 12.24 24.2778 12.876C24.2778 13.512 23.7618 14.028 23.1258 14.028C22.4898 14.028 21.9738 13.512 21.9738 12.876ZM18.0012 13.0704C15.2786 13.0705 13.0713 15.2779 13.0713 18.0005C13.0713 20.7231 15.2787 22.9295 18.0014 22.9295C20.724 22.9295 22.9306 20.7231 22.9306 18.0005C22.9306 15.2779 20.7238 13.0704 18.0012 13.0704ZM21.2014 18.0005C21.2014 16.2331 19.7685 14.8005 18.0013 14.8005C16.2339 14.8005 14.8013 16.2331 14.8013 18.0005C14.8013 19.7677 16.2339 21.2005 18.0013 21.2005C19.7685 21.2005 21.2014 19.7677 21.2014 18.0005Z" fill="black"/>
</g>
</svg>
