<svg width="73" height="24" viewBox="0 0 73 24" fill="none" xmlns="http://www.w3.org/2000/svg">
<path d="M31.0974 13.8389H0.652344V23.9812H31.0974V13.8389Z" fill="#84B740"/>
<path d="M31.0974 0H0.652344V10.1514H31.0974V0Z" fill="#259BD6"/>
<path d="M61.542 21.9215L61.4064 21.9486C60.9363 22.039 60.7646 22.0751 60.4211 22.0751C59.6256 22.0751 58.6855 21.6684 58.6855 19.752C58.6855 18.7667 58.8482 17.456 60.3307 17.456H60.3397C60.5928 17.474 60.8821 17.5012 61.4245 17.6639L61.542 17.7V21.9215ZM61.786 12.3667L61.542 12.4119V15.9554L61.325 15.8921L61.2617 15.874C61.0177 15.8017 60.4572 15.639 59.9149 15.639C56.9499 15.639 56.3262 17.8808 56.3262 19.761C56.3262 22.3373 57.7725 23.8198 60.2945 23.8198C61.3612 23.8198 62.1476 23.7113 62.9431 23.4491C63.6753 23.2141 63.9374 22.8797 63.9374 22.1655V11.9961C63.2324 12.1226 62.5002 12.2492 61.786 12.3667Z" fill="#27292D"/>
<path d="M70.3554 21.9837L70.2288 22.0199L69.7768 22.1374C69.352 22.2459 68.9723 22.3091 68.6831 22.3091C67.987 22.3091 67.5712 21.9656 67.5712 21.3781C67.5712 20.9984 67.7429 20.3566 68.8819 20.3566H70.3554V21.9837ZM69.3158 15.5928C68.4028 15.5928 67.4627 15.7555 66.2966 16.1171L65.5373 16.3431L65.7904 18.0606L66.5317 17.8165C67.3091 17.5634 68.2763 17.4007 68.9994 17.4007C69.3249 17.4007 70.3192 17.4007 70.3192 18.4764V18.9464H68.9362C66.4141 18.9464 65.248 19.7509 65.248 21.4775C65.248 22.9509 66.3237 23.8368 68.1316 23.8368C68.6921 23.8368 69.4695 23.7283 70.1384 23.5656L70.1746 23.5566L70.2107 23.5656L70.4367 23.6018C71.1418 23.7283 71.874 23.8549 72.5881 23.9905V18.3498C72.5881 16.5238 71.4853 15.5928 69.3158 15.5928Z" fill="#27292D"/>
<path d="M52.7909 21.9837L52.6644 22.0199L52.2124 22.1374C51.7875 22.2459 51.4169 22.3091 51.1186 22.3091C50.4226 22.3091 50.0067 21.9656 50.0067 21.3781C50.0067 20.9984 50.1785 20.3566 51.3084 20.3566H52.7819V21.9837H52.7909ZM51.7604 15.5928C50.8384 15.5928 49.9073 15.7555 48.7412 16.1171L47.9819 16.3431L48.235 18.0606L48.9762 17.8165C49.7536 17.5634 50.7209 17.4007 51.444 17.4007C51.7694 17.4007 52.7638 17.4007 52.7638 18.4764V18.9464H51.3807C48.8587 18.9464 47.6836 19.7509 47.6836 21.4775C47.6836 22.9509 48.7593 23.8368 50.5762 23.8368C51.1367 23.8368 51.9141 23.7283 52.583 23.5656L52.6192 23.5566L52.6553 23.5656L52.8723 23.6018C53.5864 23.7283 54.3095 23.8549 55.0237 23.9995V18.3589C55.0327 16.5148 53.9299 15.5928 51.7604 15.5928Z" fill="#27292D"/>
<path d="M43.274 15.6106C42.126 15.6106 41.1768 15.9903 40.8243 16.153L40.7339 16.1982L40.6525 16.1349C40.1644 15.7823 39.4503 15.6016 38.4559 15.6016C37.5791 15.6016 36.7565 15.7281 35.8616 15.9903C35.0932 16.2253 34.7949 16.5959 34.7949 17.2919V23.7371H37.1994V17.7801L37.3169 17.7439C37.8051 17.5812 38.0943 17.5541 38.3746 17.5541C39.0706 17.5541 39.4231 17.9247 39.4231 18.6479V23.7462H41.7915V18.5484C41.7915 18.2411 41.7282 18.0603 41.7192 18.0241L41.6378 17.8705L41.8005 17.7982C42.1621 17.6354 42.5599 17.5541 42.9757 17.5541C43.4548 17.5541 44.0243 17.7439 44.0243 18.6479V23.7462H46.3836V18.4128C46.3836 16.5236 45.3711 15.6106 43.274 15.6106Z" fill="#27292D"/>
<path d="M68.5835 6.61692C68.231 6.61692 67.6434 6.58076 67.1824 6.49037L67.0468 6.46325V2.98304C67.0468 2.69377 66.9926 2.51298 66.9835 2.48586L66.9112 2.34123L67.0649 2.27796C67.101 2.25988 67.1372 2.25084 67.1824 2.23276L67.2095 2.21468C67.2637 2.1966 67.318 2.17852 67.3722 2.16044C67.3993 2.1514 67.4174 2.14236 67.4355 2.14236C67.9688 1.99773 68.457 2.01581 68.6739 1.99773H68.6829C70.1564 1.99773 70.3281 3.30846 70.3281 4.29376C70.3191 6.21014 69.3699 6.61692 68.5835 6.61692ZM68.5745 0C68.5564 0 68.5293 0 68.5112 0C67.1281 0 65.7089 0.379661 65.2027 1.1209C64.9315 1.48248 64.7779 1.93446 64.7688 2.46779V6.05647C64.7688 6.36381 64.7056 6.48132 64.6965 6.50844L64.6152 6.66212H60.2491V4.16721H60.24C60.1858 1.53672 58.631 0.090395 56.3802 0.090395H56.118H54.1836C54.0932 0.7322 54.0209 1.18418 53.9305 1.82598H56.118C57.266 1.82598 57.8717 2.80225 57.8717 4.3028V6.81579L57.718 6.73443C57.6909 6.72539 57.5011 6.66212 57.2028 6.66212H53.4243C53.3519 7.14121 53.2615 7.76494 53.1621 8.38866H64.7779C65.1756 8.30731 65.6366 8.23499 66.0344 8.17171C66.6219 8.46098 67.7157 8.61465 68.466 8.61465C70.988 8.61465 72.6242 6.92426 72.6242 4.32088C72.6151 1.74463 71.0332 0.054237 68.5745 0Z" fill="#27292D"/>
<path d="M48.2096 9.44646H48.318C50.84 9.44646 52.0152 8.61482 52.0152 6.56285C52.0152 5.08942 50.9395 3.91428 49.1316 3.91428H46.8084C46.1124 3.91428 45.6966 3.51654 45.6966 2.84762C45.6966 2.39564 45.8683 1.8352 47.0073 1.8352H52.0875C52.196 1.17531 52.2502 0.759493 52.3496 0.0996094H47.0706C44.6118 0.0996094 43.3734 1.13011 43.3734 2.84762C43.3734 4.54704 44.4491 5.43292 46.257 5.43292H48.5802C49.2762 5.43292 49.692 5.98433 49.692 6.56285C49.692 6.94251 49.5203 7.72895 48.3903 7.72895H48.0016L40.5621 7.71087H39.2062C38.0582 7.71087 37.2537 7.06003 37.2537 5.55043V4.51089C37.2537 2.93802 37.8774 1.96175 39.2062 1.96175H41.4118C41.5113 1.29282 41.5746 0.867967 41.6649 0.235202H38.9169H38.6548C36.404 0.235202 34.8492 1.7448 34.7949 4.3753V4.47473V5.55043C34.8492 8.18093 36.404 9.43742 38.6548 9.43742H38.9169H40.8514L44.883 9.44646H47.2875H48.2096V9.44646Z" fill="#27292D"/>
</svg>
