<svg width="32" height="24" viewBox="0 0 32 24" fill="none" xmlns="http://www.w3.org/2000/svg">
<g clip-path="url(#clip0_3172:97292)">
<path d="M30.874 23.6748V23.7365H30.9315C30.9423 23.7367 30.953 23.734 30.9624 23.7286C30.9661 23.726 30.9692 23.7224 30.9712 23.7183C30.9732 23.7142 30.9742 23.7096 30.974 23.705C30.9741 23.7005 30.9732 23.6961 30.9712 23.692C30.9691 23.688 30.9661 23.6846 30.9624 23.682C30.9531 23.6765 30.9424 23.6737 30.9315 23.6742H30.874V23.6748ZM30.9321 23.6311C30.9568 23.6296 30.9812 23.6367 31.0013 23.6512C31.0093 23.6578 31.0157 23.6661 31.0199 23.6756C31.0241 23.6851 31.026 23.6954 31.0255 23.7058C31.0259 23.7147 31.0243 23.7236 31.021 23.7319C31.0176 23.7402 31.0125 23.7476 31.006 23.7538C30.9906 23.7672 30.9712 23.7753 30.9508 23.7768L31.028 23.8647H30.9686L30.8976 23.7774H30.8746V23.8647H30.8249V23.6313H30.9329L30.9321 23.6311ZM30.9167 23.9452C30.9428 23.9454 30.9686 23.9402 30.9925 23.9298C31.0155 23.9198 31.0364 23.9057 31.0542 23.888C31.072 23.8703 31.0862 23.8493 31.096 23.8263C31.1162 23.7774 31.1162 23.7225 31.096 23.6736C31.086 23.6506 31.0718 23.6297 31.0542 23.6119C31.0364 23.5942 31.0155 23.58 30.9925 23.5701C30.9684 23.5602 30.9427 23.5553 30.9167 23.5556C30.8903 23.5553 30.8641 23.5602 30.8396 23.5701C30.816 23.5798 30.7946 23.594 30.7765 23.6119C30.7492 23.6399 30.7307 23.6753 30.7234 23.7136C30.7161 23.752 30.7202 23.7917 30.7353 23.8278C30.7447 23.851 30.7587 23.8719 30.7765 23.8895C30.7946 23.9074 30.816 23.9216 30.8396 23.9313C30.8639 23.9417 30.8902 23.947 30.9167 23.9467V23.9452ZM30.9167 23.4994C30.9845 23.4994 31.0496 23.5259 31.098 23.5735C31.1213 23.5963 31.1399 23.6235 31.1526 23.6535C31.1658 23.6843 31.1726 23.7175 31.1726 23.7511C31.1726 23.7846 31.1658 23.8178 31.1526 23.8486C31.1396 23.8785 31.1211 23.9056 31.098 23.9287C31.0743 23.9514 31.0468 23.9697 31.0167 23.9827C30.9851 23.9961 30.9511 24.0029 30.9167 24.0027C30.882 24.003 30.8475 23.9961 30.8155 23.9827C30.7851 23.97 30.7573 23.9516 30.7336 23.9287C30.7105 23.9048 30.6922 23.8767 30.6797 23.846C30.6665 23.8152 30.6597 23.782 30.6597 23.7484C30.6597 23.7149 30.6665 23.6817 30.6797 23.6509C30.6925 23.6209 30.711 23.5937 30.7343 23.5708C30.7577 23.5475 30.7856 23.5291 30.8163 23.5169C30.8483 23.5034 30.8827 23.4966 30.9175 23.4968L30.9167 23.4994ZM7.29248 22.5982C7.29248 22.1532 7.58408 21.7877 8.06067 21.7877C8.51612 21.7877 8.82346 22.1375 8.82346 22.5982C8.82346 23.0589 8.51612 23.4087 8.06067 23.4087C7.58408 23.4087 7.29248 23.0432 7.29248 22.5982V22.5982ZM9.34263 22.5982V21.3319H8.79199V21.6404C8.61734 21.4124 8.35243 21.2694 7.99217 21.2694C7.28246 21.2694 6.72548 21.8259 6.72548 22.5988C6.72548 23.3717 7.28215 23.9282 7.99217 23.9282C8.35227 23.9282 8.61734 23.7851 8.79199 23.5573V23.8647H9.34202V22.5982H9.34263ZM27.9483 22.5982C27.9483 22.1532 28.2399 21.7877 28.7166 21.7877C29.1725 21.7877 29.4794 22.1375 29.4794 22.5982C29.4794 23.0589 29.1725 23.4087 28.7166 23.4087C28.24 23.4087 27.9483 23.0432 27.9483 22.5982ZM29.999 22.5982V20.3154H29.4479V21.6404C29.2733 21.4124 29.0084 21.2694 28.6481 21.2694C27.9384 21.2694 27.3814 21.8259 27.3814 22.5988C27.3814 23.3717 27.9381 23.9282 28.6481 23.9282C29.0084 23.9282 29.2733 23.7851 29.4479 23.5573V23.8647H29.999V22.5982ZM16.1769 21.7616C16.5317 21.7616 16.7596 21.984 16.8178 22.3756H15.5039C15.5627 22.0101 15.7847 21.7616 16.177 21.7616H16.1769ZM16.188 21.268C15.4459 21.268 14.9267 21.8079 14.9267 22.5974C14.9267 23.4024 15.4667 23.9268 16.2249 23.9268C16.6062 23.9268 16.9556 23.8317 17.2629 23.5721L16.993 23.1641C16.7807 23.3338 16.5104 23.4289 16.2563 23.4289C15.9015 23.4289 15.5784 23.2647 15.4989 22.8089H17.3792C17.3846 22.7404 17.3902 22.6713 17.3902 22.5973C17.3846 21.808 16.8965 21.2679 16.1877 21.2679L16.188 21.268ZM22.8358 22.5973C22.8358 22.1523 23.1274 21.7867 23.604 21.7867C24.0595 21.7867 24.3668 22.1366 24.3668 22.5973C24.3668 23.058 24.0595 23.4078 23.604 23.4078C23.1274 23.4078 22.8357 23.0423 22.8357 22.5973H22.8358ZM24.8858 22.5973V21.3319H24.3355V21.6404C24.1602 21.4124 23.8959 21.2694 23.5357 21.2694C22.826 21.2694 22.269 21.8259 22.269 22.5988C22.269 23.3717 22.8257 23.9282 23.5357 23.9282C23.8959 23.9282 24.1602 23.7851 24.3355 23.5573V23.8647H24.886V22.5982L24.8858 22.5973ZM19.7262 22.5973C19.7262 23.3652 20.261 23.9267 21.0771 23.9267C21.4585 23.9267 21.7126 23.8418 21.9874 23.6248L21.723 23.1798C21.5162 23.3284 21.2992 23.4078 21.0596 23.4078C20.62 23.4024 20.2968 23.0847 20.2968 22.5973C20.2968 22.1099 20.62 21.7923 21.0596 21.7867C21.2985 21.7867 21.5156 21.8662 21.723 22.0147L21.9874 21.5697C21.7122 21.3527 21.4581 21.2679 21.0771 21.2679C20.261 21.2679 19.7262 21.8292 19.7262 22.5973V22.5973ZM26.8249 21.2679C26.5072 21.2679 26.3003 21.4164 26.1573 21.6388V21.3319H25.6116V23.8633H26.1629V22.4443C26.1629 22.0253 26.3429 21.7926 26.7029 21.7926C26.8207 21.7909 26.9378 21.8125 27.0472 21.8563L27.2169 21.3374C27.0951 21.2895 26.9361 21.2683 26.8246 21.2683L26.8249 21.2679ZM12.065 21.5332C11.8001 21.3586 11.4351 21.2683 11.0324 21.2683C10.3909 21.2683 9.97783 21.5757 9.97783 22.0787C9.97783 22.4915 10.2853 22.7461 10.8515 22.8255L11.1117 22.8626C11.4136 22.905 11.5562 22.9844 11.5562 23.1274C11.5562 23.3231 11.3556 23.4348 10.979 23.4348C10.5976 23.4348 10.3223 23.3129 10.1367 23.17L9.878 23.5992C10.1799 23.8216 10.5613 23.9278 10.9744 23.9278C11.7057 23.9278 12.1295 23.5835 12.1295 23.1015C12.1295 22.6565 11.7959 22.4238 11.2448 22.3443L10.9853 22.3067C10.7469 22.2758 10.5559 22.2279 10.5559 22.0582C10.5559 21.8731 10.736 21.7617 11.0381 21.7617C11.3613 21.7617 11.6742 21.8836 11.8276 21.9788L12.0659 21.5338L12.065 21.5332ZM19.17 21.2688C18.8523 21.2688 18.6454 21.4173 18.503 21.6397V21.3319H17.9573V23.8633H18.508V22.4443C18.508 22.0253 18.688 21.7926 19.048 21.7926C19.1658 21.7909 19.2829 21.8125 19.3923 21.8563L19.5621 21.3374C19.4402 21.2895 19.2813 21.2683 19.1697 21.2683L19.17 21.2688ZM14.4711 21.3319H13.5707V20.5639H13.014V21.3319H12.5004V21.835H13.014V22.9898C13.014 23.5772 13.2421 23.927 13.8934 23.927C14.1324 23.927 14.4077 23.8529 14.5823 23.7313L14.4233 23.2599C14.2589 23.3551 14.0789 23.403 13.9357 23.403C13.6605 23.403 13.5707 23.2334 13.5707 22.9793V21.8355H14.4711V21.3319ZM6.23856 23.8639V22.2752C6.23856 21.6769 5.85716 21.2743 5.24234 21.2689C4.91911 21.2635 4.5857 21.3641 4.35226 21.7193C4.17761 21.4386 3.90236 21.2689 3.51542 21.2689C3.24495 21.2689 2.98066 21.3484 2.77376 21.6448V21.3319H2.22266V23.8633H2.77808V22.4597C2.77808 22.0203 3.02186 21.7867 3.39831 21.7867C3.76397 21.7867 3.94896 22.025 3.94896 22.4541V23.863H4.50562V22.4594C4.50562 22.0199 4.75973 21.7864 5.12523 21.7864C5.50123 21.7864 5.68066 22.0247 5.68066 22.4538V23.8627L6.23856 23.8639Z" fill="#231F20"/>
<path d="M31.1884 15.4434V15.0732H31.092L30.9805 15.3273L30.8695 15.0732H30.7728V15.4434H30.8413V15.1646L30.9456 15.4052H31.0166L31.1209 15.1639V15.4434H31.1888H31.1884ZM30.5767 15.4434V15.1366H30.7001V15.0742H30.3848V15.1366H30.5082V15.4434H30.5761H30.5767Z" fill="#F79410"/>
<path d="M20.2275 17.0304H11.8828V2.03809H20.2276L20.2275 17.0304Z" fill="#D99340"/>
<path d="M12.4124 9.53379C12.4124 6.49261 13.8368 3.78351 16.0548 2.03765C14.3759 0.714171 12.2993 -0.00412444 10.1612 -0.000966192C4.89439 -0.000966192 0.625 4.26783 0.625 9.53379C0.625 14.7998 4.89439 19.0685 10.1612 19.0685C12.2994 19.0717 14.376 18.3534 16.055 17.0299C13.8371 15.2844 12.4124 12.5751 12.4124 9.53379Z" fill="#EB001B"/>
<path d="M31.4854 9.53477C31.4854 14.8007 27.216 19.0695 21.9492 19.0695C19.8108 19.0727 17.734 18.3544 16.0547 17.0309C18.2733 15.285 19.6977 12.5761 19.6977 9.53477C19.6977 6.49343 18.2733 3.78448 16.0547 2.03862C17.7339 0.715187 19.8107 -0.00309251 21.949 1.00087e-05C27.2159 1.00087e-05 31.4853 4.2688 31.4853 9.53477" fill="#F79E1B"/>
</g>
<defs>
<clipPath id="clip0_3172:97292">
<rect width="30.8571" height="24" fill="white" transform="translate(0.625)"/>
</clipPath>
</defs>
</svg>
