<svg width="36" height="36" viewBox="0 0 36 36" fill="none" xmlns="http://www.w3.org/2000/svg">
<path d="M0 18C0 8.05887 8.05887 0 18 0C27.9411 0 36 8.05887 36 18C36 27.9411 27.9411 36 18 36C8.05887 36 0 27.9411 0 18Z" fill="white"/>
<path d="M18.3613 15.5308L18.3991 16.1537L17.7695 16.0774C15.478 15.785 13.4761 14.7936 11.7764 13.1284L10.9454 12.3022L10.7314 12.9123C10.2781 14.2724 10.5677 15.7088 11.512 16.6748C12.0156 17.2087 11.9023 17.2849 11.0335 16.9672C10.7314 16.8655 10.467 16.7892 10.4418 16.8273C10.3537 16.9163 10.6558 18.073 10.8951 18.5306C11.2224 19.1662 11.8897 19.789 12.62 20.1576L13.2369 20.45L12.5067 20.4627C11.8016 20.4627 11.7764 20.4754 11.8519 20.7423C12.1038 21.5686 13.0984 22.4456 14.2064 22.827L14.987 23.0939L14.3071 23.5006C13.2999 24.0853 12.1163 24.4158 10.9328 24.4413C10.3662 24.454 9.90039 24.5048 9.90039 24.5429C9.90039 24.6701 11.4364 25.3819 12.3304 25.6615C15.0122 26.4877 18.1976 26.1318 20.5898 24.7209C22.2896 23.7167 23.9893 21.7211 24.7825 19.789C25.2106 18.7594 25.6387 16.8782 25.6387 15.9757C25.6387 15.391 25.6764 15.3147 26.3815 14.6156C26.797 14.2089 27.1873 13.764 27.2629 13.6369C27.3888 13.3954 27.3762 13.3954 26.7341 13.6115C25.6639 13.9928 25.5128 13.9419 26.0416 13.3699C26.4319 12.9632 26.8977 12.226 26.8977 12.0099C26.8977 11.9717 26.7089 12.0353 26.4948 12.1497C26.2682 12.2768 25.7646 12.4675 25.3869 12.5819L24.707 12.7979L24.09 12.3785C23.7501 12.1497 23.2716 11.8955 23.0198 11.8192C22.3777 11.6412 21.3956 11.6667 20.8165 11.87C19.2426 12.442 18.248 13.9165 18.3613 15.5308Z" fill="#55ACEE"/>
</svg>
