<svg width="36" height="36" viewBox="0 0 36 36" fill="none" xmlns="http://www.w3.org/2000/svg">
<path d="M0 18C0 8.05887 8.05887 0 18 0C27.9411 0 36 8.05887 36 18C36 27.9411 27.9411 36 18 36C8.05887 36 0 27.9411 0 18Z" fill="white"/>
<path d="M27.1992 13.5553C26.9784 12.7071 26.3277 12.0391 25.5016 11.8124C24.0044 11.4004 18.0004 11.4004 18.0004 11.4004C18.0004 11.4004 11.9964 11.4004 10.4991 11.8124C9.67294 12.0391 9.02232 12.7071 8.80152 13.5553C8.40039 15.0927 8.40039 18.3004 8.40039 18.3004C8.40039 18.3004 8.40039 21.508 8.80152 23.0455C9.02232 23.8937 9.67294 24.5617 10.4991 24.7885C11.9964 25.2004 18.0004 25.2004 18.0004 25.2004C18.0004 25.2004 24.0044 25.2004 25.5016 24.7885C26.3277 24.5617 26.9784 23.8937 27.1992 23.0455C27.6004 21.508 27.6004 18.3004 27.6004 18.3004C27.6004 18.3004 27.6004 15.0927 27.1992 13.5553" fill="#FF0000"/>
<path d="M16.1992 21.5996V15.5996L20.9992 18.5997L16.1992 21.5996Z" fill="white"/>
</svg>
